<mxfile host="app.diagrams.net" modified="2022-08-17T14:56:00.142Z" agent="5.0 (X11)" etag="GH6Kg3G9WtIEIOVcb9qY" version="20.2.4" type="github">
  <diagram id="L4Ry6Axa2OAJJkDgdHSg" name="Page-1">
    <mxGraphModel dx="355" dy="721" grid="1" gridSize="10" guides="1" tooltips="1" connect="1" arrows="1" fold="1" page="1" pageScale="1" pageWidth="850" pageHeight="1100" math="0" shadow="0">
      <root>
        <mxCell id="0" />
        <mxCell id="1" parent="0" />
        <mxCell id="dAc7YdCz2Yv8MC60lnT--1" value="" style="whiteSpace=wrap;html=1;aspect=fixed;fillColor=#FFC6BD;gradientColor=#FF9B94;gradientDirection=radial;fontFamily=Times New Roman;fontSize=20;" vertex="1" parent="1">
          <mxGeometry x="250" y="130" width="280" height="280" as="geometry" />
        </mxCell>
        <mxCell id="dAc7YdCz2Yv8MC60lnT--7" value="" style="ellipse;whiteSpace=wrap;html=1;fillColor=#DBF2FF;gradientColor=#82A3FF;gradientDirection=radial;rotation=68;fontFamily=Times New Roman;fontSize=20;" vertex="1" parent="1">
          <mxGeometry x="236.07" y="85.49" width="270" height="129.54" as="geometry" />
        </mxCell>
        <mxCell id="dAc7YdCz2Yv8MC60lnT--8" style="edgeStyle=none;rounded=0;orthogonalLoop=1;jettySize=auto;html=1;fontFamily=Times New Roman;fontSize=20;endArrow=none;endFill=0;strokeWidth=1.5;" edge="1" parent="1" source="dAc7YdCz2Yv8MC60lnT--5" target="dAc7YdCz2Yv8MC60lnT--6">
          <mxGeometry relative="1" as="geometry" />
        </mxCell>
        <mxCell id="dAc7YdCz2Yv8MC60lnT--5" value="x" style="ellipse;whiteSpace=wrap;html=1;aspect=fixed;fillColor=#dae8fc;strokeColor=#6c8ebf;fontFamily=Times New Roman;fontSize=20;gradientColor=#7ea6e0;" vertex="1" parent="1">
          <mxGeometry x="385" y="185.03" width="30" height="30" as="geometry" />
        </mxCell>
        <mxCell id="dAc7YdCz2Yv8MC60lnT--6" value="x*" style="ellipse;whiteSpace=wrap;html=1;aspect=fixed;fontFamily=Times New Roman;fontSize=20;fillColor=#f8cecc;gradientColor=#ea6b66;strokeColor=#b85450;" vertex="1" parent="1">
          <mxGeometry x="320" y="310" width="30" height="30" as="geometry" />
        </mxCell>
        <mxCell id="dAc7YdCz2Yv8MC60lnT--15" value="" style="rhombus;whiteSpace=wrap;html=1;fontFamily=Times New Roman;fontSize=19;fillColor=#000000;gradientColor=none;gradientDirection=radial;" vertex="1" parent="1">
          <mxGeometry x="363" y="256" width="10" height="10" as="geometry" />
        </mxCell>
        <mxCell id="dAc7YdCz2Yv8MC60lnT--17" value="x&#39;" style="ellipse;whiteSpace=wrap;html=1;aspect=fixed;fillColor=#f8cecc;strokeColor=#b85450;fontFamily=Times New Roman;fontSize=20;gradientColor=#ea6b66;" vertex="1" parent="1">
          <mxGeometry x="353" y="246" width="30" height="30" as="geometry" />
        </mxCell>
        <mxCell id="dAc7YdCz2Yv8MC60lnT--18" value="" style="rounded=0;whiteSpace=wrap;html=1;fontFamily=Times New Roman;fontSize=19;gradientDirection=radial;" vertex="1" parent="1">
          <mxGeometry x="275" y="30" width="195" height="100" as="geometry" />
        </mxCell>
        <mxCell id="dAc7YdCz2Yv8MC60lnT--19" value="" style="rounded=0;whiteSpace=wrap;html=1;fontFamily=Times New Roman;fontSize=19;gradientDirection=radial;strokeColor=none;" vertex="1" parent="1">
          <mxGeometry x="253" y="20" width="247" height="109" as="geometry" />
        </mxCell>
        <mxCell id="dAc7YdCz2Yv8MC60lnT--20" style="edgeStyle=none;rounded=0;orthogonalLoop=1;jettySize=auto;html=1;exitX=0.5;exitY=0;exitDx=0;exitDy=0;fontFamily=Times New Roman;fontSize=19;endArrow=none;endFill=0;strokeWidth=1.5;" edge="1" parent="1" source="dAc7YdCz2Yv8MC60lnT--19" target="dAc7YdCz2Yv8MC60lnT--19">
          <mxGeometry relative="1" as="geometry" />
        </mxCell>
      </root>
    </mxGraphModel>
  </diagram>
</mxfile>
